<svg xmlns="http://www.w3.org/2000/svg" viewBox="0 0 512 512">
  <defs>
    <linearGradient id="bg" x1="80" y1="40" x2="450" y2="470" gradientUnits="userSpaceOnUse">
      <stop stop-color="#ffffff"/>
      <stop offset="0.48" stop-color="#e9f3ff"/>
      <stop offset="1" stop-color="#dcd6ff"/>
    </linearGradient>
    <linearGradient id="j" x1="156" y1="118" x2="366" y2="394" gradientUnits="userSpaceOnUse">
      <stop stop-color="#3b82f6"/>
      <stop offset="0.5" stop-color="#8b5cf6"/>
      <stop offset="1" stop-color="#ec4899"/>
    </linearGradient>
    <filter id="shadow" x="-20%" y="-20%" width="140%" height="140%">
      <feDropShadow dx="0" dy="24" stdDeviation="28" flood-color="#6d5dfc" flood-opacity="0.25"/>
    </filter>
  </defs>
  <rect width="512" height="512" rx="118" fill="url(#bg)"/>
  <circle cx="256" cy="256" r="166" fill="#ffffff" fill-opacity="0.58" stroke="#ffffff" stroke-opacity="0.78" stroke-width="3"/>
  <path filter="url(#shadow)" d="M286 122h72v218c0 34-10 61-31 80-20 19-49 29-86 29-31 0-57-7-78-22-21-15-34-37-39-65l68-16c7 29 23 44 49 44 30 0 45-17 45-51V122Z" fill="url(#j)"/>
</svg>
